<svg width="10" height="20" viewBox="0 0 10 20" fill="none" xmlns="http://www.w3.org/2000/svg">
<path fill-rule="evenodd" clip-rule="evenodd" d="M7.49429 17.5C7.49429 18.163 7.23028 18.7989 6.76033 19.2678C6.29038 19.7366 5.65299 20 4.98838 20C4.32377 20 3.68638 19.7366 3.21643 19.2678C2.74648 18.7989 2.48247 18.163 2.48247 17.5C2.48247 16.837 2.74648 16.2011 3.21643 15.7322C3.68638 15.2634 4.32377 15 4.98838 15C5.65299 15 6.29038 15.2634 6.76033 15.7322C7.23028 16.2011 7.49429 16.837 7.49429 17.5ZM9.72455 6.44875C9.54835 6.27319 9.30951 6.17457 9.06048 6.17457C8.81146 6.17457 8.57262 6.27319 8.39642 6.44875L5.9281 8.91125V0.9375C5.9281 0.68886 5.82909 0.450403 5.65286 0.274587C5.47663 0.098772 5.23761 0 4.98838 0C4.73915 0 4.50013 0.098772 4.3239 0.274587C4.14767 0.450403 4.04866 0.68886 4.04866 0.9375V8.91125L1.58034 6.44875C1.4022 6.28315 1.16659 6.193 0.923139 6.19728C0.679688 6.20157 0.447409 6.29996 0.275236 6.47172C0.103064 6.64349 0.00444181 6.87522 0.000146405 7.1181C-0.004149 7.36097 0.0862178 7.59603 0.252209 7.77375L4.32431 11.8363L4.98838 12.5L5.65245 11.8375L9.72455 7.775C9.81188 7.68794 9.88115 7.58456 9.92841 7.47078C9.97567 7.357 10 7.23504 10 7.11187C10 6.98871 9.97567 6.86675 9.92841 6.75297C9.88115 6.63919 9.81188 6.53581 9.72455 6.44875Z" fill="#E2F1FF"/>
</svg>
