<svg width="13" height="17" viewBox="0 0 13 17" fill="none" xmlns="http://www.w3.org/2000/svg">
<path d="M10.7621 6H9.28571V1C9.28571 0.45 8.86786 0 8.35714 0H4.64286C4.13214 0 3.71429 0.45 3.71429 1V6H2.23786C1.41143 6 0.993571 7.08 1.57857 7.71L5.84071 12.3C6.20286 12.69 6.78786 12.69 7.15 12.3L11.4121 7.71C11.9971 7.08 11.5886 6 10.7621 6ZM0 16C0 16.55 0.417857 17 0.928571 17H12.0714C12.5821 17 13 16.55 13 16C13 15.45 12.5821 15 12.0714 15H0.928571C0.417857 15 0 15.45 0 16Z" fill="#03DAC6"/>
</svg>
